<svg width="13" height="14" viewBox="0 0 13 14" fill="none" xmlns="http://www.w3.org/2000/svg">
<path d="M7.19511 0.294112C6.99533 0.105238 6.73083 0 6.45591 0C6.18098 0 5.91648 0.105238 5.71671 0.294112L0.504638 5.21997C0.345049 5.37099 0.217975 5.553 0.131202 5.75485C0.0444285 5.95671 -0.000216888 6.17415 7.92196e-07 6.39387V12.3871C0.000286037 12.815 0.170455 13.2252 0.473104 13.5277C0.775752 13.8301 1.18611 14 1.61398 14H3.22795C3.65601 14 4.06653 13.83 4.36921 13.5273C4.67189 13.2246 4.84193 12.8141 4.84193 12.386V9.69606C4.84193 9.55338 4.89861 9.41654 4.9995 9.31565C5.1004 9.21475 5.23724 9.15807 5.37992 9.15807H7.53189C7.67457 9.15807 7.81142 9.21475 7.91231 9.31565C8.0132 9.41654 8.06988 9.55338 8.06988 9.69606V12.386C8.06988 12.8141 8.23993 13.2246 8.54261 13.5273C8.84528 13.83 9.25581 14 9.68386 14H11.2978C11.7259 14 12.1364 13.83 12.4391 13.5273C12.7418 13.2246 12.9118 12.8141 12.9118 12.386V6.39279C12.9117 6.17318 12.8669 5.95589 12.7799 5.75423C12.6929 5.55256 12.5658 5.37077 12.4061 5.21997L7.19511 0.29196V0.294112Z" fill="#E71583"/>
</svg>
