<svg width="14" height="14" viewBox="0 0 14 14" fill="none" xmlns="http://www.w3.org/2000/svg">
<path d="M12.0115 7.686C12.0395 7.462 12.0605 7.238 12.0605 7C12.0605 6.762 12.0395 6.538 12.0115 6.314L13.4885 5.159C13.6215 5.054 13.6565 4.865 13.5725 4.711L12.1725 2.289C12.0885 2.135 11.8995 2.079 11.7455 2.135L10.0025 2.835C9.63853 2.555 9.24653 2.324 8.81953 2.149L8.55353 0.294C8.53253 0.126 8.38553 0 8.21053 0H5.41053C5.23553 0 5.08853 0.126 5.06753 0.294L4.80153 2.149C4.37453 2.324 3.98253 2.562 3.61853 2.835L1.87553 2.135C1.71453 2.072 1.53253 2.135 1.44853 2.289L0.0485321 4.711C-0.0424679 4.865 -0.000467812 5.054 0.132532 5.159L1.60953 6.314C1.58153 6.538 1.56053 6.769 1.56053 7C1.56053 7.231 1.58153 7.462 1.60953 7.686L0.132532 8.841C-0.000467812 8.946 -0.0354679 9.135 0.0485321 9.289L1.44853 11.711C1.53253 11.865 1.72153 11.921 1.87553 11.865L3.61853 11.165C3.98253 11.445 4.37453 11.676 4.80153 11.851L5.06753 13.706C5.08853 13.874 5.23553 14 5.41053 14H8.21053C8.38553 14 8.53253 13.874 8.55353 13.706L8.81953 11.851C9.24653 11.676 9.63853 11.438 10.0025 11.165L11.7455 11.865C11.9065 11.928 12.0885 11.865 12.1725 11.711L13.5725 9.289C13.6565 9.135 13.6215 8.946 13.4885 8.841L12.0115 7.686ZM6.81053 9.45C5.45953 9.45 4.36053 8.351 4.36053 7C4.36053 5.649 5.45953 4.55 6.81053 4.55C8.16153 4.55 9.26053 5.649 9.26053 7C9.26053 8.351 8.16153 9.45 6.81053 9.45Z" fill="#828B94"/>
</svg>
